<?xml version="1.0" encoding="utf-8"?>
<!-- Generator: Adobe Illustrator 27.3.1, SVG Export Plug-In . SVG Version: 6.00 Build 0)  -->
<svg version="1.1" id="Layer_1" xmlns="http://www.w3.org/2000/svg" xmlns:xlink="http://www.w3.org/1999/xlink" x="0px" y="0px"
	 viewBox="0 0 1010 296" style="enable-background:new 0 0 1010 296;" xml:space="preserve">
<style type="text/css">
	.st0{fill:#ffffff;}
</style>
<g>
	<g>
		<path class="st0" d="M462.8,224.1c-7.1,21.8-27.7,33.2-49.9,33.2c-37,0-57.5-23.5-57.5-59.6c0-33,22.9-58.5,56.8-58.5
			c21.7,0,40.7,10.4,49.4,31l-18.4,7.8c-4.9-12.6-16.2-21.4-30.1-21.4c-24.3,0-34.4,20.8-34.4,42c0,22.1,11,41,34.9,41
			c15.1,0,26.1-9.2,31.3-23L462.8,224.1z"/>
		<path class="st0" d="M516.4,169.8c25.5,0,45.1,17.9,45.1,43.6c0,26.4-20.6,43.8-46,43.8c-25.6,0-46.1-17.7-46.1-43.4
			C469.4,187.5,491.2,169.8,516.4,169.8z M540,213.6c0-15.5-7.8-28.3-24.3-28.3c-17,0-23.7,13.5-23.7,28.9
			c0,14.9,7.9,27.6,24.2,27.6C532.9,241.8,540,228.3,540,213.6z"/>
		<path class="st0" d="M576.2,171.6h20.1V185c5.4-10.4,16.7-15.1,28.4-15.1c20.2,0,29.3,14.2,29.3,33.3v52.6h-20.4v-50.6
			c0-11.8-5.3-18.7-17.2-18.7c-12.6,0-20.1,7.9-20.1,19.9v49.4h-20.1V171.6L576.2,171.6z"/>
		<path class="st0" d="M675.1,171.6h20.1V185c5.4-10.4,16.7-15.1,28.4-15.1c20.2,0,29.3,14.2,29.3,33.3v52.6h-20.4v-50.6
			c0-11.8-5.3-18.7-17.2-18.7c-12.6,0-20.1,7.9-20.1,19.9v49.4h-20.1V171.6z"/>
		<path class="st0" d="M849.1,237.4c-7,14.8-22,19.8-37.5,19.8c-26.5,0-43.2-17.7-43.2-43.9c0-24.6,17-43.6,42.3-43.6
			c27.2,0,40.4,15.9,40.4,48.3h-62.2c0,14.2,8.2,24.6,23.5,24.6c9.1,0,16.6-3.7,21-12.2L849.1,237.4z M831,204.9
			c-0.6-12.7-8.3-20.5-20.2-20.5c-12.6,0-20,8.9-21.7,20.5H831z"/>
		<path class="st0" d="M943,231.9c-5.6,17.6-21.3,25.4-38.8,25.4c-26.7,0-42.6-17.9-42.6-43.9c0-25,17.8-43.6,43.1-43.6
			c17,0,31.7,7.1,37.9,23.6l-16.2,7.1c-3.4-9.4-11.5-14.8-21.7-14.8c-16.4,0-22.4,14.2-22.4,28.6c0,14.8,6.5,27.6,22.8,27.6
			c11.5,0,19.3-6.4,22.8-16.9L943,231.9z"/>
		<path class="st0" d="M1001.5,255.1c-4.3,1.3-8.8,2-13.8,2c-16,0-25.5-8.3-25.5-25v-45.7h-11.3v-14.8h11.3v-17.3l20.1-8.7v26.1
			h18.5v14.8h-18.5v43.9c0,6.6,2.8,10.7,10.2,10.7c2.8,0,6-0.6,9-1.6L1001.5,255.1L1001.5,255.1z"/>
	</g>
	<g>
		<path class="st0" d="M361.4,104.4l37-53.4h-33.2V40.5h50.6v5.2l-36.1,53.4h35v10.5h-53.3V104.4L361.4,104.4z"/>
		<path class="st0" d="M447.5,58c15.4,0,27.2,10.8,27.2,26.3c0,15.9-12.4,26.4-27.7,26.4c-15.4,0-27.8-10.7-27.8-26.1
			C419.2,68.6,432.3,58,447.5,58z M461.7,84.3c0-9.3-4.7-17.1-14.6-17.1c-10.2,0-14.3,8.1-14.3,17.4c0,9,4.8,16.6,14.6,16.6
			C457.4,101.3,461.7,93.2,461.7,84.3z"/>
		<path class="st0" d="M483.5,36.1h12.1v31c3.3-6.3,9.9-9.1,16.9-9.1c12.1,0,18.2,8.5,18.2,20v31.7h-12.2V79.2
			c0-7.3-3.8-11.2-10.8-11.2c-7.8,0-12,4.8-12,12v29.7h-12.1V36.1H483.5z"/>
		<path class="st0" d="M566.8,58c15.4,0,27.2,10.8,27.2,26.3c0,15.9-12.4,26.4-27.7,26.4c-15.4,0-27.8-10.7-27.8-26.1
			C538.5,68.6,551.6,58,566.8,58z M581,84.3c0-9.3-4.7-17.1-14.7-17.1c-10.2,0-14.3,8.1-14.3,17.4c0,9,4.8,16.6,14.6,16.6
			C576.8,101.3,581,93.2,581,84.3z"/>
	</g>
</g>
<g>
	<g>
		<path class="st0" d="M46.3,197.2c-2.9,0-5.7-1.5-7.3-4.2c-10.8-18.2-16.4-39.1-16.2-60.4c0.1-4.6,3.9-8.4,8.5-8.4h0.1
			c4.7,0.1,8.4,3.9,8.4,8.6c-0.2,18.1,4.5,35.9,13.8,51.4c2.4,4,1.1,9.2-2.9,11.7C49.3,196.8,47.8,197.2,46.3,197.2z"/>
	</g>
	<g>
		<path class="st0" d="M192.6,51c-1.5,0-3-0.4-4.3-1.2c-15.5-9.3-33.4-14-51.5-13.8h-0.1c-4.6,0-8.4-3.7-8.5-8.4s3.7-8.6,8.4-8.6
			c21.3-0.3,42.2,5.3,60.5,16.2c4,2.4,5.4,7.6,2.9,11.7C198.3,49.5,195.5,51,192.6,51z"/>
	</g>
	<g>
		<path class="st0" d="M190.1,235.8c-3,0-5.9-1.6-7.4-4.3c-2.3-4.1-0.9-9.3,3.3-11.6c7.8-4.4,15-9.9,21.4-16.2
			c6.4-6.4,11.8-13.6,16.2-21.4c2.3-4.1,7.5-5.6,11.6-3.3s5.6,7.5,3.3,11.6c-5.1,9.2-11.5,17.6-19.1,25.1
			c-7.5,7.5-16,13.9-25.1,19.1C193,235.4,191.6,235.8,190.1,235.8z"/>
	</g>
	<g>
		<path class="st0" d="M241,162.4c-14.3,0-28.6-5.4-39.4-16.3c-10.6-10.6-16.3-24.6-16.3-39.4c0-14.9,5.8-28.9,16.3-39.4
			c21.8-21.8,57.2-21.8,78.9,0l0,0c10.5,10.6,16.3,24.6,16.3,39.4c0,14.9-5.8,28.9-16.3,39.4C269.6,156.9,255.3,162.4,241,162.4z
			 M241,67.8c-9.9,0-19.9,3.8-27.4,11.3c-7.3,7.3-11.4,17.1-11.4,27.4s4,20.1,11.4,27.4c15.1,15.1,39.7,15.1,54.9,0
			c7.3-7.3,11.4-17.1,11.4-27.4s-4-20.1-11.4-27.4C260.9,71.6,251,67.8,241,67.8z"/>
	</g>
	<g>
		<path class="st0" d="M62.6,114.6c-14.9,0-28.9-5.8-39.4-16.3c-21.8-21.8-21.8-57.2,0-78.9s57.2-21.8,78.9,0
			c10.6,10.5,16.3,24.6,16.3,39.5s-5.8,28.9-16.3,39.5C91.5,108.8,77.5,114.6,62.6,114.6z M62.6,20c-9.9,0-19.9,3.8-27.4,11.3
			C20,46.5,20,71.1,35.2,86.2c7.3,7.3,17.1,11.4,27.4,11.4s20.1-4,27.4-11.4c7.3-7.3,11.4-17.1,11.4-27.4s-4-20.1-11.4-27.4
			C82.4,23.8,72.5,20,62.6,20z"/>
	</g>
	<g>
		<path class="st0" d="M110.4,293c-14.9,0-28.9-5.8-39.4-16.3c-21.8-21.8-21.8-57.2,0-78.9c10.6-10.6,24.6-16.3,39.4-16.3
			c14.9,0,28.9,5.8,39.4,16.3c21.8,21.8,21.8,57.2,0,78.9C139.3,287.2,125.3,293,110.4,293z M110.4,198.4c-10.4,0-20.1,4-27.4,11.4
			c-15.1,15.1-15.1,39.7,0,54.9c7.3,7.3,17.1,11.4,27.4,11.4s20.1-4,27.4-11.4c15.1-15.1,15.1-39.7,0-54.9
			C130.5,202.4,120.8,198.4,110.4,198.4z"/>
	</g>
</g>
</svg>
